# xmcd
# 
# Track frame offsets:
#     150
#     2402
#     28601
#     63951
#     101903
#     140766
# 
# Disc length: 2421
# 
# Revision: 0
# Processed by: cddbd v1.5.2PL0 Copyright (c) Steve Scherf et al.
# Submitted via: fre:ac v1.0.17
# 
DISCID=49097306
DTITLE=Moonblood - Siegfried - Die Sage vom Helden
DYEAR=1995
DGENRE=BM
TTITLE0=Intro
TTITLE1=In der Schmiede
TTITLE2=Der Kampf mit dem Lindwurm
TTITLE3=Der Nibelungenhort
TTITLE4=Brunhilds Eroberung
TTITLE5=Der Verrat
EXTD=
EXTT0=
EXTT1=
EXTT2=
EXTT3=
EXTT4=
EXTT5=
PLAYORDER=
